<svg width="120" height="21" viewBox="0 0 120 21" fill="none" xmlns="http://www.w3.org/2000/svg">
<path d="M9.99996 14.5549L4.85671 17.6962L6.25496 11.8337L1.67871 7.91368L7.68559 7.43243L9.99996 1.86743L12.3143 7.43243L18.3221 7.91368L13.745 11.8337L15.1432 17.6962L9.99996 14.5549Z" fill="#FFE785"/>
<path d="M35 14.5549L29.8567 17.6962L31.255 11.8337L26.6787 7.91368L32.6856 7.43243L35 1.86743L37.3143 7.43243L43.3221 7.91368L38.745 11.8337L40.1432 17.6962L35 14.5549Z" fill="#FFE785"/>
<path d="M60 14.5549L54.8567 17.6962L56.255 11.8337L51.6787 7.91368L57.6856 7.43243L60 1.86743L62.3143 7.43243L68.3221 7.91368L63.745 11.8337L65.1432 17.6962L60 14.5549Z" fill="#FFE785"/>
<path d="M85 14.5549L79.8567 17.6962L81.255 11.8337L76.6787 7.91368L82.6856 7.43243L85 1.86743L87.3143 7.43243L93.3221 7.91368L88.745 11.8337L90.1432 17.6962L85 14.5549Z" fill="#FFE785"/>
<path d="M110 14.5549L104.857 17.6962L106.255 11.8337L101.679 7.91368L107.686 7.43243L110 1.86743L112.314 7.43243L118.322 7.91368L113.745 11.8337L115.143 17.6962L110 14.5549Z" fill="#FFE785"/>
</svg>
